Coordinates
version=1
nRows=6
nColumns=36
inDegrees=yes

Units are S.I. units (second, meters, Newtons, ...)
If the header above contains a line with 'inDegrees', this indicates whether rotational values are in degrees (yes) or radians (no).

endheader
time	pelvis_tilt	pelvis_list	pelvis_rotation	pelvis_tx	pelvis_ty	pelvis_tz	hip_flexion_r	hip_adduction_r	hip_rotation_r	knee_angle_r	knee_angle_r_beta	ankle_angle_r	subtalar_angle_r	mtp_angle_r	hip_flexion_l	hip_adduction_l	hip_rotation_l	knee_angle_l	knee_angle_l_beta	ankle_angle_l	subtalar_angle_l	mtp_angle_l	lumbar_extension	lumbar_bending	lumbar_rotation	arm_flex_r	arm_add_r	arm_rot_r	elbow_flex_r	pro_sup_r	arm_flex_l	arm_add_l	arm_rot_l	elbow_flex_l	pro_sup_l
     11.46666670	     -1.51984039	      1.30796811	      6.74459650	      0.39469879	      0.93375035	     -0.08336751	     18.49520471	     -4.90583593	     -4.57689335	     45.23472675	      0.78949492	     -7.65098185	    -16.66304017	     -7.49999987	     -2.66381603	      4.15386787	      9.20859310	      4.21741087	      0.07360771	      3.56907218	      3.43414534	     -7.49999987	      2.71861705	     -6.56300853	     -7.32945817	     46.80686527	     10.55042118	     63.55406663	    131.88935506	     92.80097827	     37.68215917	     10.35981489	     65.82517838	    124.34819133	     68.24243531
     11.48333330	     -1.41048597	      1.36689241	      6.88651671	      0.39551134	      0.93172775	     -0.08368383	     18.38749624	     -4.98369040	     -4.67942855	     45.24494952	      0.78967334	     -8.01734424	    -16.83343185	     -7.49999987	     -2.83340587	      4.17831106	      9.25143076	      4.31329155	      0.07528114	      3.30055104	      3.18574182	     -7.49999987	      2.67313710	     -6.58525214	     -7.29317808	     46.77989080	     10.48120037	     63.39832127	    131.83932915	     92.49641822	     37.69087421	     10.46043389	     65.92594759	    124.44367725	     68.14146250
     11.50000000	     -1.53995682	      1.48230349	      6.87118563	      0.39484143	      0.92918249	     -0.08352881	     18.52516195	     -5.07964114	     -4.46911049	     45.41683568	      0.79267332	     -7.08786418	    -16.71245032	     -7.49999987	     -2.66523564	      4.35220997	      9.06726038	      4.56151449	      0.07961345	      3.43886679	      3.01834917	     -7.49999987	      2.90954494	     -6.76382524	     -7.21577192	     46.71509408	     10.55350627	     63.34773167	    131.79638735	     92.19409960	     37.65557568	     10.44735189	     65.82609481	    124.37605693	     68.03508499
     11.51666670	     -1.52431399	      1.57130994	      6.94721543	      0.39559750	      0.93246734	     -0.08371916	     18.47455220	     -5.23247982	     -4.55449638	     45.49893595	      0.79410624	     -6.51634131	    -16.58717292	     -7.49999987	     -2.74926419	      4.46772427	      9.19859274	      4.52203737	      0.07892444	      3.26189348	      2.60992876	     -7.49999987	      2.88699362	     -6.85148431	     -7.16416519	     46.68720687	     10.58423340	     63.26200875	    131.88351266	     96.33343478	     37.67690966	     10.52780501	     66.03799435	    124.39444855	     69.21367441
     11.53333330	     -1.65219644	      1.62874653	      6.81654005	      0.39543441	      0.93238194	     -0.08359214	     18.68753448	     -5.28846378	     -4.34927467	     45.53652963	      0.79476237	     -6.34452809	    -16.47869988	     -7.49999987	     -2.65318225	      4.56079539	      8.94601867	      4.46073559	      0.07785452	      3.31089937	      2.74387659	     -7.49999987	      3.11395609	     -6.90750349	     -7.03562667	     46.55531034	     10.64695775	     63.29122349	    131.89128273	     95.86852059	     37.56225875	     10.51679445	     65.99423122	    124.20563233	     68.99173451
     11.55000000	     -1.77093855	      1.57349813	      6.97002591	      0.39520803	      0.93384895	     -0.08345755	     18.57318634	     -5.24976573	     -4.44022703	     45.16615815	      0.78829817	     -5.84613598	    -16.15703018	     -7.49999987	     -2.55695445	      4.49902586	      9.18697462	      4.29732882	      0.07500254	      3.20565549	      2.77744319	     -7.49999987	      3.25646174	     -6.87300581	     -7.11524377	     46.38850425	     10.61695916	     63.53871177	    131.98616494	     94.70233468	     37.55578371	     10.55757562	     66.16105683	    123.93695415	     68.52336506
